# xmcd
#
# Track frame offsets:
#	150
#	2022
#	20790
#	40923
#	56277
#	75557
#	84085
#	86810
#	111892
#	121956
#	141236
#	157273
#	177406
#	196686
#	213406
#	226542
#	230803
#	249912
#
# Disc length: 3825
#
# Revision: 1
# Processed by: cddbd v1.5.1PL0 Copyright (c) Steve Scherf et al.
# Submitted via: dBpowerAMP V4.0
# Normalized: r0:TRMNUM
#
DISCID=e20eef12
DTITLE=Angie_Martinez - Up_Close_and_Personal
DYEAR=2002
DGENRE=R&B
TTITLE0=Heart_And_Soul-FLy
TTITLE1=New_York,_New_York_-_(featuring_Prodigy/DJ_Clue)-FLy
TTITLE2=Every Little Girl - (featuring The Product G and B)-FLy
TTITLE3=Coast 2 Coast (Suavamente) - (featuring Wyclef Jean)-FLy
TTITLE4=Ladies and Gents - (featuring Snoop Doggy Dogg)-FLy
TTITLE5=Gutter 2 The Fancy Ish - (featuring Busta Rhymes)-FLy
TTITLE6=Back From Cuba - (interlude)-FLy
TTITLE7=Live At Jimmy's - (featuring Big Pun/Cuban)-FLy
TTITLE8=Silly N***az - (featuring Uneek, interlude)-FLy
TTITLE9=No Playaz - (featuring Lil Mo/Tony Sunshine)-FLy
TTITLE10=Breathe - (featuring Mary J. Blige/La India)-FLy
TTITLE11=Live From The Streets-FLy
TTITLE12=Go!! (M********A)-FLy
TTITLE13=Thug Love - (featuring Fat Joe/Lazie Bone)-FLy
TTITLE14=Mi Amor - (featuring Jay Z)-FLy
TTITLE15=Ladies Fight - (interlude)-FLy
TTITLE16=Dem Thangz (Dem Thangz)-FLy
TTITLE17=Coast 2 Coast - (Suavemente remix)-FLy
EXTD=Angie martinez
EXTT0=
EXTT1=
EXTT2=
EXTT3=
EXTT4=
EXTT5=
EXTT6=
EXTT7=
EXTT8=
EXTT9=
EXTT10=
EXTT11=
EXTT12=
EXTT13=
EXTT14=
EXTT15=
EXTT16=
EXTT17=
PLAYORDER=
